<svg width="500" height="500" viewBox="0 0 500 500" fill="none" xmlns="http://www.w3.org/2000/svg">
<g clip-path="url(#clip0_6_29)">
<rect x="58" y="353.054" width="93.5315" height="206.639" transform="rotate(-45 58 353.054)" fill="#D9D9D9"/>
<rect x="426.868" y="147" width="93.5315" height="406.028" transform="rotate(45 426.868 147)" fill="#D9D9D9"/>
<path d="M15.3423 223.893C42.1374 252.842 163.177 257 219 257C276.363 257 395.863 252.842 422.658 223.893C449.453 194.944 405.333 173.592 379.924 166.534C379.924 131.374 365.295 54.7407 306.777 29.4872C298.564 67.2135 290.992 146.131 290.992 158.45C282.009 125.6 266.738 50.6601 277.518 13.7037C269.305 10.2391 247.104 0.999906 219 1C190.896 0.999906 168.695 10.2391 160.482 13.7037C171.262 50.6601 155.991 125.6 147.008 158.45C147.008 146.131 139.436 67.2135 131.223 29.4872C72.7053 54.7407 58.0758 131.374 58.0758 166.534C32.6667 173.592 -11.4527 194.944 15.3423 223.893Z" fill="#FAD02C"/>
</g>
<defs>
<clipPath id="clip0_6_29">
<rect width="500" height="500" fill="white"/>
</clipPath>
</defs>
</svg>
